<svg width="18" height="18" viewBox="0 0 18 18" fill="none" xmlns="http://www.w3.org/2000/svg">
<g clip-path="url(#clip0_844_745)">
<path d="M12.4639 0C12.5058 0 12.5477 0 12.592 0C12.6947 1.2694 12.2102 2.21789 11.6213 2.90476C11.0435 3.58688 10.2523 4.24845 8.97267 4.14807C8.88731 2.89685 9.37262 2.01871 9.96068 1.33342C10.5061 0.69477 11.5059 0.126466 12.4639 0Z" fill="black"/>
<path d="M16.3378 13.2125C16.3378 13.2251 16.3378 13.2362 16.3378 13.248C15.9782 14.3372 15.4652 15.2707 14.8392 16.137C14.2677 16.9234 13.5674 17.9818 12.317 17.9818C11.2365 17.9818 10.5188 17.287 9.41147 17.2681C8.24008 17.2491 7.5959 17.849 6.5249 18C6.40238 18 6.27987 18 6.15973 18C5.37327 17.8862 4.73857 17.2633 4.27618 16.7021C2.91272 15.0438 1.85911 12.9018 1.66309 10.1607C1.66309 9.89196 1.66309 9.62401 1.66309 9.35527C1.74608 7.39347 2.69931 5.79843 3.96634 5.02541C4.63503 4.61439 5.55427 4.26424 6.57785 4.42074C7.01653 4.48872 7.46469 4.6389 7.85753 4.78749C8.22981 4.93056 8.69536 5.18428 9.13641 5.17084C9.43518 5.16215 9.73238 5.00644 10.0335 4.89657C10.9156 4.57804 11.7803 4.21287 12.9201 4.38438C14.2899 4.59147 15.2621 5.20009 15.8628 6.13909C14.7041 6.87655 13.788 7.98786 13.9445 9.88564C14.0836 11.6095 15.0858 12.6181 16.3378 13.2125Z" fill="black"/>
</g>
<defs>
<clipPath id="clip0_844_745">
<rect width="18" height="18" fill="white"/>
</clipPath>
</defs>
</svg>
