<svg width="20" height="20" viewBox="0 0 20 20" fill="none" xmlns="http://www.w3.org/2000/svg">
<path d="M10.3333 16.2083L3.79167 9.66667C3.47222 9.34722 3.3125 8.97222 3.3125 8.54167C3.3125 8.11111 3.47222 7.73611 3.79167 7.41667L7.41667 3.79167C7.73611 3.47222 8.11111 3.3125 8.54167 3.3125C8.97222 3.3125 9.34722 3.47222 9.66667 3.79167L16.2083 10.3333C16.5278 10.6528 16.6875 11.0278 16.6875 11.4583C16.6875 11.8889 16.5278 12.2639 16.2083 12.5833L12.5833 16.2083C12.2639 16.5278 11.8889 16.6875 11.4583 16.6875C11.0278 16.6875 10.6528 16.5278 10.3333 16.2083ZM11.4583 15L15 11.4583L8.54167 5L5 8.54167L11.4583 15ZM11.6458 1.8125L13.25 3.41667C13.4028 3.56944 13.4792 3.76389 13.4792 4C13.4792 4.23611 13.4028 4.43056 13.25 4.58333C13.0972 4.73611 12.9028 4.8125 12.6667 4.8125C12.4306 4.8125 12.2361 4.73611 12.0833 4.58333L8.54167 1.04167C8.375 0.875 8.32986 0.680556 8.40625 0.458333C8.48264 0.236111 8.63889 0.104167 8.875 0.0625C9.06944 0.0347222 9.25694 0.0173611 9.4375 0.0104167C9.61806 0.00347222 9.80556 0 10 0C11.375 0 12.6701 0.260417 13.8854 0.78125C15.1007 1.30208 16.1632 2.01736 17.0729 2.92708C17.9826 3.83681 18.6979 4.89931 19.2188 6.11458C19.7396 7.32986 20 8.625 20 10C20 10.2361 19.9201 10.434 19.7604 10.5938C19.6007 10.7535 19.4028 10.8333 19.1667 10.8333C18.9306 10.8333 18.7326 10.7535 18.5729 10.5938C18.4132 10.434 18.3333 10.2361 18.3333 10C18.3333 9.01389 18.1667 8.06944 17.8333 7.16667C17.5 6.26389 17.0382 5.45139 16.4479 4.72917C15.8576 4.00694 15.1528 3.39236 14.3333 2.88542C13.5139 2.37847 12.6181 2.02083 11.6458 1.8125ZM8.35417 18.1875L6.75 16.5833C6.59722 16.4306 6.52083 16.2361 6.52083 16C6.52083 15.7639 6.59722 15.5694 6.75 15.4167C6.90278 15.2639 7.09722 15.1875 7.33333 15.1875C7.56944 15.1875 7.76389 15.2639 7.91667 15.4167L11.4583 18.9583C11.625 19.125 11.6701 19.3229 11.5938 19.5521C11.5174 19.7812 11.3611 19.9097 11.125 19.9375C10.9306 19.9653 10.7431 19.9826 10.5625 19.9896C10.3819 19.9965 10.1944 20 10 20C8.625 20 7.32986 19.7396 6.11458 19.2188C4.89931 18.6979 3.83681 17.9826 2.92708 17.0729C2.01736 16.1632 1.30208 15.1007 0.78125 13.8854C0.260417 12.6701 0 11.375 0 10C0 9.76389 0.0798611 9.56597 0.239583 9.40625C0.399306 9.24653 0.597222 9.16667 0.833333 9.16667C1.06944 9.16667 1.26736 9.24653 1.42708 9.40625C1.58681 9.56597 1.66667 9.76389 1.66667 10C1.66667 10.9861 1.83333 11.9306 2.16667 12.8333C2.5 13.7361 2.96181 14.5486 3.55208 15.2708C4.14236 15.9931 4.84722 16.6076 5.66667 17.1146C6.48611 17.6215 7.38194 17.9792 8.35417 18.1875Z" fill="#273F3B"/>
</svg>
